<?xml version="1.0" encoding="utf-8"?>
<!-- Generator: Adobe Illustrator 27.9.0, SVG Export Plug-In . SVG Version: 6.00 Build 0)  -->
<svg version="1.1" id="Layer_1" xmlns="http://www.w3.org/2000/svg" xmlns:xlink="http://www.w3.org/1999/xlink" x="0px" y="0px"
	 width="400px" height="400px" viewBox="0 0 400 400" style="enable-background:new 0 0 400 400;" xml:space="preserve">
<g>
	<path d="M196.6,377.8c-1.7-1.6-7.6-14.4-18.7-40.5L161.7,299h-48.2c-27.9,0-50.5-0.4-53.6-1c-8-1.5-18.8-7.2-24.6-13
		c-5.9-5.9-11.6-16.2-13.2-23.8c-0.8-3.6-1.1-31.4-1.1-88.5c0-71.6,0.2-84.1,1.5-89.2C27.3,65.1,42.6,51,61,48.1
		c9-1.5,269.1-1.5,278,0c17.9,2.8,32.7,15.6,38,32.6c1.9,6.3,2,9.2,2,91.7c0,53.7-0.4,86.7-1.1,89.5c-2.7,11.9-12.9,25.1-23.7,30.9
		c-11.1,5.9-13.8,6.2-66.8,6.2h-48.1l-16.2,38.3c-9,21-17,38.9-17.9,39.8C202.2,380.1,199.4,380.3,196.6,377.8z M321,241.5
		c3-1.7,6.9-4.9,8.7-7.3c5.9-7.8,6.3-10.7,6.3-49.4V150h-21v6.3l-2.2-2c-5.5-5-12.9-6.7-21.4-5c-16,3.3-24.4,14.7-24.4,33.1
		c0,15.4,4.2,23.1,15.6,28.7c5.1,2.5,7.7,3.2,12.2,3.2c7.2-0.1,13.2-1.7,16.7-4.5l2.8-2.2l-0.7,4.4c-1.4,8.7-6,13-14,13H295v20.2
		l10.3-0.4C314.3,244.5,316.1,244.1,321,241.5L321,241.5z M117.6,210.8c5.7-2.6,11.2-8.2,13.8-13.7c2.8-6.3,2.9-21.2,0.2-29
		c-2-5.9-8.1-13.3-13-15.9c-10.2-5.3-23.2-4.4-30.3,2.1l-2.3,2V123H64l0.2,44.3l0.3,44.2l10.8,0.3C85.5,212.1,86,212,86,210
		c0-2.5,0.3-2.5,4.9,0.5C97.9,215.2,108.1,215.3,117.6,210.8L117.6,210.8z M234.7,211.8c6.1-2.2,14.4-9.3,17.7-15.2
		c10.9-19-1.5-42-25.1-46.6c-14.8-2.9-30.8,4.3-37.8,17.1c-2.2,4.2-3,7-3.3,13c-0.4,6.7-0.1,8.3,2.3,13.7
		c2.9,6.5,9.5,13.6,15.5,16.7C212.7,215,224.7,215.5,234.7,211.8z M171.8,177.7l-0.3-34.2l-3.3-6.7c-4.6-9.3-11.9-14.3-23.9-16.3
		l-4.3-0.7v11.1c0,9.5,0.2,11.1,1.6,11.1c0.9,0,3.1,1.5,5,3.4l3.4,3.4V212h22.1L171.8,177.7z"/>
	<path d="M297.3,193.5c-6.6-2.8-9.2-11.8-5.3-18.2c5.4-8.9,18-8.1,22.2,1.4c3.1,7.1,0,14.4-7.5,17.2
		C303,195.3,301.2,195.2,297.3,193.5L297.3,193.5z M92.2,192.4c-7.4-5.1-6.6-17.1,1.4-20.9c11-5.2,21.5,5.7,15.9,16.5
		C106.7,193.5,97.2,195.9,92.2,192.4L92.2,192.4z M214.3,193c-6-3.6-8-11.4-4.4-17.5c0.1-0.2,0.3-0.4,0.4-0.6
		c2.9-4.3,6-5.9,11.6-5.9c3.7,0,4.9,0.5,8.2,3.9c3.3,3.3,3.9,4.5,3.9,8.2C234,191.8,223.1,198.4,214.3,193L214.3,193z"/>
</g>
</svg>
