<?xml version="1.0" encoding="utf-8"?>
<!-- Generator: Adobe Illustrator 27.9.0, SVG Export Plug-In . SVG Version: 6.00 Build 0)  -->
<svg version="1.1" id="Layer_3" xmlns="http://www.w3.org/2000/svg" xmlns:xlink="http://www.w3.org/1999/xlink" x="0px" y="0px"
	 width="300px" height="100px" viewBox="0 0 300 100" enable-background="new 0 0 300 100" xml:space="preserve">
<g>
	<path fill="#FFFFFF" d="M11.5,3.7h57c1,0,1.8,0.8,1.8,1.8v12.6c0,1-0.8,1.8-1.8,1.8H58.4c-1.6,0-2.4,2-1.3,3.1l12.5,12.7
		c0.4,0.4,0.5,1.1,0.1,1.6l-8.3,10.3c-0.4,0.5-1.2,0.6-1.7,0.1L42,32.1c-0.4-0.4-1.1-0.4-1.6,0L23,47.8c-0.5,0.4-1.2,0.4-1.6-0.1
		L12,37.6c-0.4-0.5-0.4-1.2,0.1-1.7l14-13.2c1.2-1.1,0.4-3.2-1.2-3.2H13.9c-1,0-1.8-0.8-1.8-1.8C11.9,13.4,11.5,2.4,11.5,3.7z"/>
	<path fill="#FFFFFF" d="M10.1,48.9L71.6,49c0.6,0,1.2,0.5,1.2,1.2v13.9c0,0.6-0.5,1.2-1.2,1.2H51.3c-0.6,0-1.2,0.5-1.2,1.2V85
		c0,0.6-0.5,1.2-1.2,1.2H32.6c-0.6,0-1.2-0.5-1.2-1.2V66.5c0-0.6-0.5-1.2-1.2-1.2H10.1c-0.6,0-1.2-0.5-1.2-1.2v-14
		C8.9,49.5,9.4,48.9,10.1,48.9z"/>
	<path fill="#FFFFFF" d="M80.4,3.4h16.1c0.6,0,1.2,0.5,1.2,1.2v41.2c0,0.6,0.5,1.2,1.2,1.2h24.4c0.6,0,1.2,0.5,1.2,1.2v16.2
		c0,0.6-0.5,1.2-1.2,1.2H80.5c-0.6,0-1.2-0.5-1.2-1.2L79.2,4.6C79.2,3.9,79.7,3.4,80.4,3.4z"/>
	<path fill="#FFFFFF" d="M128.5,3.5h18c0.7,0,1.3,0.5,1.3,1.2v68c0,0.6-0.6,1.2-1.3,1.2h-17.9c-0.7,0-1.3-0.5-1.3-1.2l-0.1-68
		C127.2,4,127.8,3.5,128.5,3.5z"/>
	<path fill="#FFFFFF" d="M154.8,17.9h54c0.6,0,1.2,0.5,1.2,1.2v14.4c0,0.6-0.5,1.2-1.2,1.2h-37.1c-0.6,0-1.2,0.5-1.2,1.2v1.4
		c0,0.6,0.5,1.2,1.2,1.2h36.9c0.6,0,1.2,0.5,1.2,1.2v12.3c0,0.6-0.5,1.2-1.2,1.2h-36.8c-0.6,0-1.2,0.5-1.2,1.2V56
		c0,0.6,0.5,1.2,1.2,1.2h36.9c0.6,0,1.2,0.5,1.2,1.2v12.6c0,0.6-0.5,1.2-1.2,1.2h-16.3c-0.6,0-1.2,0.5-1.2,1.2v5.6
		c0,0.6,0.5,1.2,1.2,1.2h20.3c0.6,0,1.2,0.5,1.2,1.2v14.3c0,0.6-0.5,1.2-1.2,1.2h-62c-0.6,0-1.2-0.5-1.2-1.2V81.3
		c0-0.6,0.5-1.2,1.2-1.2h21c0.6,0,1.2-0.5,1.2-1.2v-6c0-0.6-0.5-1.2-1.2-1.2h-17c-0.6,0-1.2-0.5-1.2-1.2V19.1
		C153.6,18.4,154.2,17.9,154.8,17.9z"/>
	<path fill="#FFFFFF" d="M219.4,18.3h16.2c0.6,0,1.2,0.5,1.2,1.2v42.9c0,0.6,0.5,1.2,1.2,1.2h24.6c0.6,0,1.2,0.5,1.2,1.2v16.2
		c0,0.6-0.5,1.2-1.2,1.2h-43.2c-0.7,0-1.2-0.5-1.2-1.2l0.1-61.5C218.3,18.8,218.8,18.3,219.4,18.3z"/>
	<path fill="#FFFFFF" d="M267.9,29.9v57.3c0,0.6,0.5,1.2,1.2,1.2h14.2c0.6,0,1.2-0.5,1.2-1.2V30c0-0.6-0.5-1.2-1.2-1.2l-14.2-0.1
		C268.5,28.7,267.9,29.2,267.9,29.9z"/>
	<path fill="#FFFFFF" d="M276.6,3.2c-8,0-14.5,6.5-14.5,14.5c0,8,6.5,14.5,14.5,14.5c8,0,14.5-6.5,14.5-14.5
		C291.1,9.7,284.6,3.2,276.6,3.2z M285.4,16l-3.8,2.8c-0.4,0.3-0.5,0.8-0.4,1.2l1.5,4.5c0.3,1-0.8,1.8-1.7,1.2l-3.8-2.8
		c-0.4-0.3-0.9-0.3-1.3,0l-3.8,2.8c-0.8,0.6-2-0.2-1.7-1.2l1.5-4.5c0.1-0.4,0-0.9-0.4-1.2l-3.8-2.8c-0.6-0.4-0.5-1.3-0.1-1.7
		c0.2-0.2,0.4-0.2,0.7-0.2h4.7c0.5,0,0.9-0.3,1-0.7l1.5-4.5c0.3-1,1.7-1,2,0l1.5,4.5c0.1,0.4,0.6,0.7,1,0.7h4.7
		C285.8,14,286.3,15.4,285.4,16z"/>
</g>
</svg>
