<?xml version="1.0" encoding="utf-8"?>
<!-- Generator: Adobe Illustrator 27.9.0, SVG Export Plug-In . SVG Version: 6.00 Build 0)  -->
<svg version="1.1" xmlns="http://www.w3.org/2000/svg" xmlns:xlink="http://www.w3.org/1999/xlink" x="0px" y="0px" width="400px"
	 height="192px" viewBox="0 0 400 192" enable-background="new 0 0 400 192" xml:space="preserve">
<g id="Layer_1" display="none">
	<rect x="0.3" y="-0.2" display="inline" fill="#231F20" width="400" height="192.9"/>
</g>
<g id="Layer_2" display="none">
	
		<image display="inline" overflow="visible" width="360" height="157" xlink:href="7D8ABF37.png"  transform="matrix(1.1072 0 0 1.1072 0.9714 9.0846)">
	</image>
</g>
<g id="Layer_3">
	<polygon fill="#147FDB" points="6.6,68.2 74.3,68.2 74.3,135.6 53.7,135.6 53.7,115.7 13.6,115.7 13.6,96.9 53.7,96.9 53.7,87.7 
		6.9,87.7 	"/>
	<polygon fill="#147FDB" points="80.7,56.8 105.1,56.8 105.1,145.5 80.5,145.5 	"/>
	<path fill="#147FDB" d="M108.2,34.9h67.9v19.9h-21.2c0,0,4.8,17.7,27.2,23.8l-10.7,19.9c0,0-15.7-5.1-28.4-21.4
		c0,0-10.7,13.9-28.4,21.6l-12.2-19.4c0,0,17.6-4.8,28-24.3h-22.1C108.3,54.9,107,34.9,108.2,34.9z"/>
	<path fill="#147FDB" d="M102.9,106.5c0,0,32.2,15.6,80.3,0.7v19.9c0,0-34.7,14.9-80.8,0.2L102.9,106.5z"/>
	<polygon fill="#147FDB" points="175.9,67.8 244.3,67.8 244.3,135.4 222.6,135.4 222.6,88.2 175.9,88.2 	"/>
	<rect x="180.5" y="97.2" fill="#147FDB" width="48.7" height="18.7"/>
	<polygon fill="#147FDB" points="274.7,45.1 250.6,53.2 250.6,145.9 274.7,145.9 	"/>
	<polygon fill="#147FDB" points="283.9,60.4 283.9,145.9 306,145.9 306,53.6 	"/>
	<path fill="#147FDB" d="M271.7,89.2h16v21.1h-19C268.6,110.3,271.7,87.4,271.7,89.2z"/>
	<path fill="#147FDB" d="M337.6,14.5h23.1c0,0,5.4,25.5,30.9,34.6l-11.2,18.7c0,0-16.5-7-31.2-26.5c0,0-12.9,18.2-30.2,25.5
		l-11.5-16.6C307.3,50.2,330.8,40.3,337.6,14.5z"/>
	<polygon fill="#147FDB" points="302.9,70.9 393.9,70.9 393.9,91.3 301.6,91.3 	"/>
	<path fill="#147FDB" d="M316.2,97.4h65.2v43.1h-42.8v8.2c0,0,10,13.9,41.1,2.7l5.8,19.7c0,0-50.4,20.5-68.6-12.9v-35.3H360v-7.1
		h-43.8V97.4z"/>
	<path fill="#147FDB" d="M154.2,96.7"/>
</g>
</svg>
